<?xml version="1.0" encoding="utf-8"?>
<svg xmlns="http://www.w3.org/2000/svg" xmlns:xlink="http://www.w3.org/1999/xlink" xml:space="preserve" width="990" height="990" viewBox="0 0 990 990"><rect width="990" height="990" fill="#ffffff" x="0" y="0"/><g fill="#000000">
<g transform="translate(220,44) scale(3.7766666666667)"><circle cx="3" cy="3" r="3"/></g>
<g transform="translate(242,44) scale(3.7766666666667)"><circle cx="3" cy="3" r="3"/></g>
<g transform="translate(308,44) scale(3.7766666666667)"><circle cx="3" cy="3" r="3"/></g>
<g transform="translate(352,44) scale(3.7766666666667)"><circle cx="3" cy="3" r="3"/></g>
<g transform="translate(506,44) scale(3.7766666666667)"><circle cx="3" cy="3" r="3"/></g>
<g transform="translate(528,44) scale(3.7766666666667)"><circle cx="3" cy="3" r="3"/></g>
<g transform="translate(550,44) scale(3.7766666666667)"><circle cx="3" cy="3" r="3"/></g>
<g transform="translate(572,44) scale(3.7766666666667)"><circle cx="3" cy="3" r="3"/></g>
<g transform="translate(616,44) scale(3.7766666666667)"><circle cx="3" cy="3" r="3"/></g>
<g transform="translate(748,44) scale(3.7766666666667)"><circle cx="3" cy="3" r="3"/></g>
<g transform="translate(220,66) scale(3.7766666666667)"><circle cx="3" cy="3" r="3"/></g>
<g transform="translate(264,66) scale(3.7766666666667)"><circle cx="3" cy="3" r="3"/></g>
<g transform="translate(286,66) scale(3.7766666666667)"><circle cx="3" cy="3" r="3"/></g>
<g transform="translate(352,66) scale(3.7766666666667)"><circle cx="3" cy="3" r="3"/></g>
<g transform="translate(374,66) scale(3.7766666666667)"><circle cx="3" cy="3" r="3"/></g>
<g transform="translate(418,66) scale(3.7766666666667)"><circle cx="3" cy="3" r="3"/></g>
<g transform="translate(440,66) scale(3.7766666666667)"><circle cx="3" cy="3" r="3"/></g>
<g transform="translate(462,66) scale(3.7766666666667)"><circle cx="3" cy="3" r="3"/></g>
<g transform="translate(484,66) scale(3.7766666666667)"><circle cx="3" cy="3" r="3"/></g>
<g transform="translate(528,66) scale(3.7766666666667)"><circle cx="3" cy="3" r="3"/></g>
<g transform="translate(550,66) scale(3.7766666666667)"><circle cx="3" cy="3" r="3"/></g>
<g transform="translate(572,66) scale(3.7766666666667)"><circle cx="3" cy="3" r="3"/></g>
<g transform="translate(638,66) scale(3.7766666666667)"><circle cx="3" cy="3" r="3"/></g>
<g transform="translate(704,66) scale(3.7766666666667)"><circle cx="3" cy="3" r="3"/></g>
<g transform="translate(748,66) scale(3.7766666666667)"><circle cx="3" cy="3" r="3"/></g>
<g transform="translate(220,88) scale(3.7766666666667)"><circle cx="3" cy="3" r="3"/></g>
<g transform="translate(242,88) scale(3.7766666666667)"><circle cx="3" cy="3" r="3"/></g>
<g transform="translate(286,88) scale(3.7766666666667)"><circle cx="3" cy="3" r="3"/></g>
<g transform="translate(352,88) scale(3.7766666666667)"><circle cx="3" cy="3" r="3"/></g>
<g transform="translate(418,88) scale(3.7766666666667)"><circle cx="3" cy="3" r="3"/></g>
<g transform="translate(550,88) scale(3.7766666666667)"><circle cx="3" cy="3" r="3"/></g>
<g transform="translate(616,88) scale(3.7766666666667)"><circle cx="3" cy="3" r="3"/></g>
<g transform="translate(638,88) scale(3.7766666666667)"><circle cx="3" cy="3" r="3"/></g>
<g transform="translate(704,88) scale(3.7766666666667)"><circle cx="3" cy="3" r="3"/></g>
<g transform="translate(726,88) scale(3.7766666666667)"><circle cx="3" cy="3" r="3"/></g>
<g transform="translate(242,110) scale(3.7766666666667)"><circle cx="3" cy="3" r="3"/></g>
<g transform="translate(264,110) scale(3.7766666666667)"><circle cx="3" cy="3" r="3"/></g>
<g transform="translate(286,110) scale(3.7766666666667)"><circle cx="3" cy="3" r="3"/></g>
<g transform="translate(352,110) scale(3.7766666666667)"><circle cx="3" cy="3" r="3"/></g>
<g transform="translate(396,110) scale(3.7766666666667)"><circle cx="3" cy="3" r="3"/></g>
<g transform="translate(418,110) scale(3.7766666666667)"><circle cx="3" cy="3" r="3"/></g>
<g transform="translate(440,110) scale(3.7766666666667)"><circle cx="3" cy="3" r="3"/></g>
<g transform="translate(462,110) scale(3.7766666666667)"><circle cx="3" cy="3" r="3"/></g>
<g transform="translate(506,110) scale(3.7766666666667)"><circle cx="3" cy="3" r="3"/></g>
<g transform="translate(528,110) scale(3.7766666666667)"><circle cx="3" cy="3" r="3"/></g>
<g transform="translate(572,110) scale(3.7766666666667)"><circle cx="3" cy="3" r="3"/></g>
<g transform="translate(638,110) scale(3.7766666666667)"><circle cx="3" cy="3" r="3"/></g>
<g transform="translate(682,110) scale(3.7766666666667)"><circle cx="3" cy="3" r="3"/></g>
<g transform="translate(704,110) scale(3.7766666666667)"><circle cx="3" cy="3" r="3"/></g>
<g transform="translate(242,132) scale(3.7766666666667)"><circle cx="3" cy="3" r="3"/></g>
<g transform="translate(264,132) scale(3.7766666666667)"><circle cx="3" cy="3" r="3"/></g>
<g transform="translate(308,132) scale(3.7766666666667)"><circle cx="3" cy="3" r="3"/></g>
<g transform="translate(396,132) scale(3.7766666666667)"><circle cx="3" cy="3" r="3"/></g>
<g transform="translate(418,132) scale(3.7766666666667)"><circle cx="3" cy="3" r="3"/></g>
<g transform="translate(506,132) scale(3.7766666666667)"><circle cx="3" cy="3" r="3"/></g>
<g transform="translate(550,132) scale(3.7766666666667)"><circle cx="3" cy="3" r="3"/></g>
<g transform="translate(616,132) scale(3.7766666666667)"><circle cx="3" cy="3" r="3"/></g>
<g transform="translate(660,132) scale(3.7766666666667)"><circle cx="3" cy="3" r="3"/></g>
<g transform="translate(726,132) scale(3.7766666666667)"><circle cx="3" cy="3" r="3"/></g>
<g transform="translate(748,132) scale(3.7766666666667)"><circle cx="3" cy="3" r="3"/></g>
<g transform="translate(220,154) scale(3.7766666666667)"><circle cx="3" cy="3" r="3"/></g>
<g transform="translate(242,154) scale(3.7766666666667)"><circle cx="3" cy="3" r="3"/></g>
<g transform="translate(264,154) scale(3.7766666666667)"><circle cx="3" cy="3" r="3"/></g>
<g transform="translate(308,154) scale(3.7766666666667)"><circle cx="3" cy="3" r="3"/></g>
<g transform="translate(374,154) scale(3.7766666666667)"><circle cx="3" cy="3" r="3"/></g>
<g transform="translate(396,154) scale(3.7766666666667)"><circle cx="3" cy="3" r="3"/></g>
<g transform="translate(418,154) scale(3.7766666666667)"><circle cx="3" cy="3" r="3"/></g>
<g transform="translate(440,154) scale(3.7766666666667)"><circle cx="3" cy="3" r="3"/></g>
<g transform="translate(484,154) scale(3.7766666666667)"><circle cx="3" cy="3" r="3"/></g>
<g transform="translate(528,154) scale(3.7766666666667)"><circle cx="3" cy="3" r="3"/></g>
<g transform="translate(638,154) scale(3.7766666666667)"><circle cx="3" cy="3" r="3"/></g>
<g transform="translate(748,154) scale(3.7766666666667)"><circle cx="3" cy="3" r="3"/></g>
<g transform="translate(220,176) scale(3.7766666666667)"><circle cx="3" cy="3" r="3"/></g>
<g transform="translate(264,176) scale(3.7766666666667)"><circle cx="3" cy="3" r="3"/></g>
<g transform="translate(308,176) scale(3.7766666666667)"><circle cx="3" cy="3" r="3"/></g>
<g transform="translate(352,176) scale(3.7766666666667)"><circle cx="3" cy="3" r="3"/></g>
<g transform="translate(396,176) scale(3.7766666666667)"><circle cx="3" cy="3" r="3"/></g>
<g transform="translate(440,176) scale(3.7766666666667)"><circle cx="3" cy="3" r="3"/></g>
<g transform="translate(484,176) scale(3.7766666666667)"><circle cx="3" cy="3" r="3"/></g>
<g transform="translate(528,176) scale(3.7766666666667)"><circle cx="3" cy="3" r="3"/></g>
<g transform="translate(572,176) scale(3.7766666666667)"><circle cx="3" cy="3" r="3"/></g>
<g transform="translate(616,176) scale(3.7766666666667)"><circle cx="3" cy="3" r="3"/></g>
<g transform="translate(660,176) scale(3.7766666666667)"><circle cx="3" cy="3" r="3"/></g>
<g transform="translate(704,176) scale(3.7766666666667)"><circle cx="3" cy="3" r="3"/></g>
<g transform="translate(748,176) scale(3.7766666666667)"><circle cx="3" cy="3" r="3"/></g>
<g transform="translate(220,198) scale(3.7766666666667)"><circle cx="3" cy="3" r="3"/></g>
<g transform="translate(264,198) scale(3.7766666666667)"><circle cx="3" cy="3" r="3"/></g>
<g transform="translate(286,198) scale(3.7766666666667)"><circle cx="3" cy="3" r="3"/></g>
<g transform="translate(308,198) scale(3.7766666666667)"><circle cx="3" cy="3" r="3"/></g>
<g transform="translate(330,198) scale(3.7766666666667)"><circle cx="3" cy="3" r="3"/></g>
<g transform="translate(352,198) scale(3.7766666666667)"><circle cx="3" cy="3" r="3"/></g>
<g transform="translate(374,198) scale(3.7766666666667)"><circle cx="3" cy="3" r="3"/></g>
<g transform="translate(418,198) scale(3.7766666666667)"><circle cx="3" cy="3" r="3"/></g>
<g transform="translate(440,198) scale(3.7766666666667)"><circle cx="3" cy="3" r="3"/></g>
<g transform="translate(528,198) scale(3.7766666666667)"><circle cx="3" cy="3" r="3"/></g>
<g transform="translate(616,198) scale(3.7766666666667)"><circle cx="3" cy="3" r="3"/></g>
<g transform="translate(704,198) scale(3.7766666666667)"><circle cx="3" cy="3" r="3"/></g>
<g transform="translate(726,198) scale(3.7766666666667)"><circle cx="3" cy="3" r="3"/></g>
<g transform="translate(748,198) scale(3.7766666666667)"><circle cx="3" cy="3" r="3"/></g>
<g transform="translate(88,220) scale(3.7766666666667)"><circle cx="3" cy="3" r="3"/></g>
<g transform="translate(110,220) scale(3.7766666666667)"><circle cx="3" cy="3" r="3"/></g>
<g transform="translate(132,220) scale(3.7766666666667)"><circle cx="3" cy="3" r="3"/></g>
<g transform="translate(176,220) scale(3.7766666666667)"><circle cx="3" cy="3" r="3"/></g>
<g transform="translate(220,220) scale(3.7766666666667)"><circle cx="3" cy="3" r="3"/></g>
<g transform="translate(264,220) scale(3.7766666666667)"><circle cx="3" cy="3" r="3"/></g>
<g transform="translate(286,220) scale(3.7766666666667)"><circle cx="3" cy="3" r="3"/></g>
<g transform="translate(440,220) scale(3.7766666666667)"><circle cx="3" cy="3" r="3"/></g>
<g transform="translate(484,220) scale(3.7766666666667)"><circle cx="3" cy="3" r="3"/></g>
<g transform="translate(528,220) scale(3.7766666666667)"><circle cx="3" cy="3" r="3"/></g>
<g transform="translate(594,220) scale(3.7766666666667)"><circle cx="3" cy="3" r="3"/></g>
<g transform="translate(638,220) scale(3.7766666666667)"><circle cx="3" cy="3" r="3"/></g>
<g transform="translate(660,220) scale(3.7766666666667)"><circle cx="3" cy="3" r="3"/></g>
<g transform="translate(682,220) scale(3.7766666666667)"><circle cx="3" cy="3" r="3"/></g>
<g transform="translate(704,220) scale(3.7766666666667)"><circle cx="3" cy="3" r="3"/></g>
<g transform="translate(748,220) scale(3.7766666666667)"><circle cx="3" cy="3" r="3"/></g>
<g transform="translate(770,220) scale(3.7766666666667)"><circle cx="3" cy="3" r="3"/></g>
<g transform="translate(792,220) scale(3.7766666666667)"><circle cx="3" cy="3" r="3"/></g>
<g transform="translate(814,220) scale(3.7766666666667)"><circle cx="3" cy="3" r="3"/></g>
<g transform="translate(880,220) scale(3.7766666666667)"><circle cx="3" cy="3" r="3"/></g>
<g transform="translate(902,220) scale(3.7766666666667)"><circle cx="3" cy="3" r="3"/></g>
<g transform="translate(924,220) scale(3.7766666666667)"><circle cx="3" cy="3" r="3"/></g>
<g transform="translate(44,242) scale(3.7766666666667)"><circle cx="3" cy="3" r="3"/></g>
<g transform="translate(88,242) scale(3.7766666666667)"><circle cx="3" cy="3" r="3"/></g>
<g transform="translate(132,242) scale(3.7766666666667)"><circle cx="3" cy="3" r="3"/></g>
<g transform="translate(154,242) scale(3.7766666666667)"><circle cx="3" cy="3" r="3"/></g>
<g transform="translate(242,242) scale(3.7766666666667)"><circle cx="3" cy="3" r="3"/></g>
<g transform="translate(286,242) scale(3.7766666666667)"><circle cx="3" cy="3" r="3"/></g>
<g transform="translate(308,242) scale(3.7766666666667)"><circle cx="3" cy="3" r="3"/></g>
<g transform="translate(330,242) scale(3.7766666666667)"><circle cx="3" cy="3" r="3"/></g>
<g transform="translate(352,242) scale(3.7766666666667)"><circle cx="3" cy="3" r="3"/></g>
<g transform="translate(374,242) scale(3.7766666666667)"><circle cx="3" cy="3" r="3"/></g>
<g transform="translate(418,242) scale(3.7766666666667)"><circle cx="3" cy="3" r="3"/></g>
<g transform="translate(440,242) scale(3.7766666666667)"><circle cx="3" cy="3" r="3"/></g>
<g transform="translate(462,242) scale(3.7766666666667)"><circle cx="3" cy="3" r="3"/></g>
<g transform="translate(484,242) scale(3.7766666666667)"><circle cx="3" cy="3" r="3"/></g>
<g transform="translate(528,242) scale(3.7766666666667)"><circle cx="3" cy="3" r="3"/></g>
<g transform="translate(616,242) scale(3.7766666666667)"><circle cx="3" cy="3" r="3"/></g>
<g transform="translate(660,242) scale(3.7766666666667)"><circle cx="3" cy="3" r="3"/></g>
<g transform="translate(682,242) scale(3.7766666666667)"><circle cx="3" cy="3" r="3"/></g>
<g transform="translate(704,242) scale(3.7766666666667)"><circle cx="3" cy="3" r="3"/></g>
<g transform="translate(726,242) scale(3.7766666666667)"><circle cx="3" cy="3" r="3"/></g>
<g transform="translate(748,242) scale(3.7766666666667)"><circle cx="3" cy="3" r="3"/></g>
<g transform="translate(792,242) scale(3.7766666666667)"><circle cx="3" cy="3" r="3"/></g>
<g transform="translate(814,242) scale(3.7766666666667)"><circle cx="3" cy="3" r="3"/></g>
<g transform="translate(836,242) scale(3.7766666666667)"><circle cx="3" cy="3" r="3"/></g>
<g transform="translate(880,242) scale(3.7766666666667)"><circle cx="3" cy="3" r="3"/></g>
<g transform="translate(924,242) scale(3.7766666666667)"><circle cx="3" cy="3" r="3"/></g>
<g transform="translate(110,264) scale(3.7766666666667)"><circle cx="3" cy="3" r="3"/></g>
<g transform="translate(132,264) scale(3.7766666666667)"><circle cx="3" cy="3" r="3"/></g>
<g transform="translate(176,264) scale(3.7766666666667)"><circle cx="3" cy="3" r="3"/></g>
<g transform="translate(198,264) scale(3.7766666666667)"><circle cx="3" cy="3" r="3"/></g>
<g transform="translate(220,264) scale(3.7766666666667)"><circle cx="3" cy="3" r="3"/></g>
<g transform="translate(286,264) scale(3.7766666666667)"><circle cx="3" cy="3" r="3"/></g>
<g transform="translate(330,264) scale(3.7766666666667)"><circle cx="3" cy="3" r="3"/></g>
<g transform="translate(440,264) scale(3.7766666666667)"><circle cx="3" cy="3" r="3"/></g>
<g transform="translate(462,264) scale(3.7766666666667)"><circle cx="3" cy="3" r="3"/></g>
<g transform="translate(484,264) scale(3.7766666666667)"><circle cx="3" cy="3" r="3"/></g>
<g transform="translate(506,264) scale(3.7766666666667)"><circle cx="3" cy="3" r="3"/></g>
<g transform="translate(528,264) scale(3.7766666666667)"><circle cx="3" cy="3" r="3"/></g>
<g transform="translate(550,264) scale(3.7766666666667)"><circle cx="3" cy="3" r="3"/></g>
<g transform="translate(616,264) scale(3.7766666666667)"><circle cx="3" cy="3" r="3"/></g>
<g transform="translate(638,264) scale(3.7766666666667)"><circle cx="3" cy="3" r="3"/></g>
<g transform="translate(660,264) scale(3.7766666666667)"><circle cx="3" cy="3" r="3"/></g>
<g transform="translate(682,264) scale(3.7766666666667)"><circle cx="3" cy="3" r="3"/></g>
<g transform="translate(748,264) scale(3.7766666666667)"><circle cx="3" cy="3" r="3"/></g>
<g transform="translate(770,264) scale(3.7766666666667)"><circle cx="3" cy="3" r="3"/></g>
<g transform="translate(814,264) scale(3.7766666666667)"><circle cx="3" cy="3" r="3"/></g>
<g transform="translate(836,264) scale(3.7766666666667)"><circle cx="3" cy="3" r="3"/></g>
<g transform="translate(902,264) scale(3.7766666666667)"><circle cx="3" cy="3" r="3"/></g>
<g transform="translate(44,286) scale(3.7766666666667)"><circle cx="3" cy="3" r="3"/></g>
<g transform="translate(66,286) scale(3.7766666666667)"><circle cx="3" cy="3" r="3"/></g>
<g transform="translate(88,286) scale(3.7766666666667)"><circle cx="3" cy="3" r="3"/></g>
<g transform="translate(198,286) scale(3.7766666666667)"><circle cx="3" cy="3" r="3"/></g>
<g transform="translate(264,286) scale(3.7766666666667)"><circle cx="3" cy="3" r="3"/></g>
<g transform="translate(308,286) scale(3.7766666666667)"><circle cx="3" cy="3" r="3"/></g>
<g transform="translate(330,286) scale(3.7766666666667)"><circle cx="3" cy="3" r="3"/></g>
<g transform="translate(352,286) scale(3.7766666666667)"><circle cx="3" cy="3" r="3"/></g>
<g transform="translate(374,286) scale(3.7766666666667)"><circle cx="3" cy="3" r="3"/></g>
<g transform="translate(396,286) scale(3.7766666666667)"><circle cx="3" cy="3" r="3"/></g>
<g transform="translate(418,286) scale(3.7766666666667)"><circle cx="3" cy="3" r="3"/></g>
<g transform="translate(440,286) scale(3.7766666666667)"><circle cx="3" cy="3" r="3"/></g>
<g transform="translate(506,286) scale(3.7766666666667)"><circle cx="3" cy="3" r="3"/></g>
<g transform="translate(528,286) scale(3.7766666666667)"><circle cx="3" cy="3" r="3"/></g>
<g transform="translate(594,286) scale(3.7766666666667)"><circle cx="3" cy="3" r="3"/></g>
<g transform="translate(616,286) scale(3.7766666666667)"><circle cx="3" cy="3" r="3"/></g>
<g transform="translate(660,286) scale(3.7766666666667)"><circle cx="3" cy="3" r="3"/></g>
<g transform="translate(726,286) scale(3.7766666666667)"><circle cx="3" cy="3" r="3"/></g>
<g transform="translate(748,286) scale(3.7766666666667)"><circle cx="3" cy="3" r="3"/></g>
<g transform="translate(770,286) scale(3.7766666666667)"><circle cx="3" cy="3" r="3"/></g>
<g transform="translate(836,286) scale(3.7766666666667)"><circle cx="3" cy="3" r="3"/></g>
<g transform="translate(858,286) scale(3.7766666666667)"><circle cx="3" cy="3" r="3"/></g>
<g transform="translate(924,286) scale(3.7766666666667)"><circle cx="3" cy="3" r="3"/></g>
<g transform="translate(44,308) scale(3.7766666666667)"><circle cx="3" cy="3" r="3"/></g>
<g transform="translate(110,308) scale(3.7766666666667)"><circle cx="3" cy="3" r="3"/></g>
<g transform="translate(176,308) scale(3.7766666666667)"><circle cx="3" cy="3" r="3"/></g>
<g transform="translate(198,308) scale(3.7766666666667)"><circle cx="3" cy="3" r="3"/></g>
<g transform="translate(220,308) scale(3.7766666666667)"><circle cx="3" cy="3" r="3"/></g>
<g transform="translate(286,308) scale(3.7766666666667)"><circle cx="3" cy="3" r="3"/></g>
<g transform="translate(330,308) scale(3.7766666666667)"><circle cx="3" cy="3" r="3"/></g>
<g transform="translate(352,308) scale(3.7766666666667)"><circle cx="3" cy="3" r="3"/></g>
<g transform="translate(396,308) scale(3.7766666666667)"><circle cx="3" cy="3" r="3"/></g>
<g transform="translate(440,308) scale(3.7766666666667)"><circle cx="3" cy="3" r="3"/></g>
<g transform="translate(462,308) scale(3.7766666666667)"><circle cx="3" cy="3" r="3"/></g>
<g transform="translate(484,308) scale(3.7766666666667)"><circle cx="3" cy="3" r="3"/></g>
<g transform="translate(550,308) scale(3.7766666666667)"><circle cx="3" cy="3" r="3"/></g>
<g transform="translate(616,308) scale(3.7766666666667)"><circle cx="3" cy="3" r="3"/></g>
<g transform="translate(682,308) scale(3.7766666666667)"><circle cx="3" cy="3" r="3"/></g>
<g transform="translate(726,308) scale(3.7766666666667)"><circle cx="3" cy="3" r="3"/></g>
<g transform="translate(748,308) scale(3.7766666666667)"><circle cx="3" cy="3" r="3"/></g>
<g transform="translate(770,308) scale(3.7766666666667)"><circle cx="3" cy="3" r="3"/></g>
<g transform="translate(858,308) scale(3.7766666666667)"><circle cx="3" cy="3" r="3"/></g>
<g transform="translate(880,308) scale(3.7766666666667)"><circle cx="3" cy="3" r="3"/></g>
<g transform="translate(924,308) scale(3.7766666666667)"><circle cx="3" cy="3" r="3"/></g>
<g transform="translate(88,330) scale(3.7766666666667)"><circle cx="3" cy="3" r="3"/></g>
<g transform="translate(110,330) scale(3.7766666666667)"><circle cx="3" cy="3" r="3"/></g>
<g transform="translate(198,330) scale(3.7766666666667)"><circle cx="3" cy="3" r="3"/></g>
<g transform="translate(264,330) scale(3.7766666666667)"><circle cx="3" cy="3" r="3"/></g>
<g transform="translate(286,330) scale(3.7766666666667)"><circle cx="3" cy="3" r="3"/></g>
<g transform="translate(330,330) scale(3.7766666666667)"><circle cx="3" cy="3" r="3"/></g>
<g transform="translate(352,330) scale(3.7766666666667)"><circle cx="3" cy="3" r="3"/></g>
<g transform="translate(396,330) scale(3.7766666666667)"><circle cx="3" cy="3" r="3"/></g>
<g transform="translate(418,330) scale(3.7766666666667)"><circle cx="3" cy="3" r="3"/></g>
<g transform="translate(440,330) scale(3.7766666666667)"><circle cx="3" cy="3" r="3"/></g>
<g transform="translate(484,330) scale(3.7766666666667)"><circle cx="3" cy="3" r="3"/></g>
<g transform="translate(528,330) scale(3.7766666666667)"><circle cx="3" cy="3" r="3"/></g>
<g transform="translate(594,330) scale(3.7766666666667)"><circle cx="3" cy="3" r="3"/></g>
<g transform="translate(616,330) scale(3.7766666666667)"><circle cx="3" cy="3" r="3"/></g>
<g transform="translate(638,330) scale(3.7766666666667)"><circle cx="3" cy="3" r="3"/></g>
<g transform="translate(660,330) scale(3.7766666666667)"><circle cx="3" cy="3" r="3"/></g>
<g transform="translate(682,330) scale(3.7766666666667)"><circle cx="3" cy="3" r="3"/></g>
<g transform="translate(726,330) scale(3.7766666666667)"><circle cx="3" cy="3" r="3"/></g>
<g transform="translate(792,330) scale(3.7766666666667)"><circle cx="3" cy="3" r="3"/></g>
<g transform="translate(814,330) scale(3.7766666666667)"><circle cx="3" cy="3" r="3"/></g>
<g transform="translate(836,330) scale(3.7766666666667)"><circle cx="3" cy="3" r="3"/></g>
<g transform="translate(858,330) scale(3.7766666666667)"><circle cx="3" cy="3" r="3"/></g>
<g transform="translate(924,330) scale(3.7766666666667)"><circle cx="3" cy="3" r="3"/></g>
<g transform="translate(66,352) scale(3.7766666666667)"><circle cx="3" cy="3" r="3"/></g>
<g transform="translate(88,352) scale(3.7766666666667)"><circle cx="3" cy="3" r="3"/></g>
<g transform="translate(176,352) scale(3.7766666666667)"><circle cx="3" cy="3" r="3"/></g>
<g transform="translate(286,352) scale(3.7766666666667)"><circle cx="3" cy="3" r="3"/></g>
<g transform="translate(308,352) scale(3.7766666666667)"><circle cx="3" cy="3" r="3"/></g>
<g transform="translate(374,352) scale(3.7766666666667)"><circle cx="3" cy="3" r="3"/></g>
<g transform="translate(396,352) scale(3.7766666666667)"><circle cx="3" cy="3" r="3"/></g>
<g transform="translate(462,352) scale(3.7766666666667)"><circle cx="3" cy="3" r="3"/></g>
<g transform="translate(484,352) scale(3.7766666666667)"><circle cx="3" cy="3" r="3"/></g>
<g transform="translate(550,352) scale(3.7766666666667)"><circle cx="3" cy="3" r="3"/></g>
<g transform="translate(572,352) scale(3.7766666666667)"><circle cx="3" cy="3" r="3"/></g>
<g transform="translate(616,352) scale(3.7766666666667)"><circle cx="3" cy="3" r="3"/></g>
<g transform="translate(682,352) scale(3.7766666666667)"><circle cx="3" cy="3" r="3"/></g>
<g transform="translate(770,352) scale(3.7766666666667)"><circle cx="3" cy="3" r="3"/></g>
<g transform="translate(814,352) scale(3.7766666666667)"><circle cx="3" cy="3" r="3"/></g>
<g transform="translate(836,352) scale(3.7766666666667)"><circle cx="3" cy="3" r="3"/></g>
<g transform="translate(902,352) scale(3.7766666666667)"><circle cx="3" cy="3" r="3"/></g>
<g transform="translate(44,374) scale(3.7766666666667)"><circle cx="3" cy="3" r="3"/></g>
<g transform="translate(66,374) scale(3.7766666666667)"><circle cx="3" cy="3" r="3"/></g>
<g transform="translate(88,374) scale(3.7766666666667)"><circle cx="3" cy="3" r="3"/></g>
<g transform="translate(110,374) scale(3.7766666666667)"><circle cx="3" cy="3" r="3"/></g>
<g transform="translate(132,374) scale(3.7766666666667)"><circle cx="3" cy="3" r="3"/></g>
<g transform="translate(198,374) scale(3.7766666666667)"><circle cx="3" cy="3" r="3"/></g>
<g transform="translate(220,374) scale(3.7766666666667)"><circle cx="3" cy="3" r="3"/></g>
<g transform="translate(286,374) scale(3.7766666666667)"><circle cx="3" cy="3" r="3"/></g>
<g transform="translate(308,374) scale(3.7766666666667)"><circle cx="3" cy="3" r="3"/></g>
<g transform="translate(352,374) scale(3.7766666666667)"><circle cx="3" cy="3" r="3"/></g>
<g transform="translate(396,374) scale(3.7766666666667)"><circle cx="3" cy="3" r="3"/></g>
<g transform="translate(440,374) scale(3.7766666666667)"><circle cx="3" cy="3" r="3"/></g>
<g transform="translate(484,374) scale(3.7766666666667)"><circle cx="3" cy="3" r="3"/></g>
<g transform="translate(506,374) scale(3.7766666666667)"><circle cx="3" cy="3" r="3"/></g>
<g transform="translate(550,374) scale(3.7766666666667)"><circle cx="3" cy="3" r="3"/></g>
<g transform="translate(572,374) scale(3.7766666666667)"><circle cx="3" cy="3" r="3"/></g>
<g transform="translate(594,374) scale(3.7766666666667)"><circle cx="3" cy="3" r="3"/></g>
<g transform="translate(616,374) scale(3.7766666666667)"><circle cx="3" cy="3" r="3"/></g>
<g transform="translate(660,374) scale(3.7766666666667)"><circle cx="3" cy="3" r="3"/></g>
<g transform="translate(792,374) scale(3.7766666666667)"><circle cx="3" cy="3" r="3"/></g>
<g transform="translate(814,374) scale(3.7766666666667)"><circle cx="3" cy="3" r="3"/></g>
<g transform="translate(858,374) scale(3.7766666666667)"><circle cx="3" cy="3" r="3"/></g>
<g transform="translate(902,374) scale(3.7766666666667)"><circle cx="3" cy="3" r="3"/></g>
<g transform="translate(44,396) scale(3.7766666666667)"><circle cx="3" cy="3" r="3"/></g>
<g transform="translate(110,396) scale(3.7766666666667)"><circle cx="3" cy="3" r="3"/></g>
<g transform="translate(154,396) scale(3.7766666666667)"><circle cx="3" cy="3" r="3"/></g>
<g transform="translate(176,396) scale(3.7766666666667)"><circle cx="3" cy="3" r="3"/></g>
<g transform="translate(198,396) scale(3.7766666666667)"><circle cx="3" cy="3" r="3"/></g>
<g transform="translate(220,396) scale(3.7766666666667)"><circle cx="3" cy="3" r="3"/></g>
<g transform="translate(352,396) scale(3.7766666666667)"><circle cx="3" cy="3" r="3"/></g>
<g transform="translate(462,396) scale(3.7766666666667)"><circle cx="3" cy="3" r="3"/></g>
<g transform="translate(506,396) scale(3.7766666666667)"><circle cx="3" cy="3" r="3"/></g>
<g transform="translate(660,396) scale(3.7766666666667)"><circle cx="3" cy="3" r="3"/></g>
<g transform="translate(682,396) scale(3.7766666666667)"><circle cx="3" cy="3" r="3"/></g>
<g transform="translate(704,396) scale(3.7766666666667)"><circle cx="3" cy="3" r="3"/></g>
<g transform="translate(748,396) scale(3.7766666666667)"><circle cx="3" cy="3" r="3"/></g>
<g transform="translate(770,396) scale(3.7766666666667)"><circle cx="3" cy="3" r="3"/></g>
<g transform="translate(814,396) scale(3.7766666666667)"><circle cx="3" cy="3" r="3"/></g>
<g transform="translate(858,396) scale(3.7766666666667)"><circle cx="3" cy="3" r="3"/></g>
<g transform="translate(880,396) scale(3.7766666666667)"><circle cx="3" cy="3" r="3"/></g>
<g transform="translate(44,418) scale(3.7766666666667)"><circle cx="3" cy="3" r="3"/></g>
<g transform="translate(198,418) scale(3.7766666666667)"><circle cx="3" cy="3" r="3"/></g>
<g transform="translate(220,418) scale(3.7766666666667)"><circle cx="3" cy="3" r="3"/></g>
<g transform="translate(242,418) scale(3.7766666666667)"><circle cx="3" cy="3" r="3"/></g>
<g transform="translate(264,418) scale(3.7766666666667)"><circle cx="3" cy="3" r="3"/></g>
<g transform="translate(286,418) scale(3.7766666666667)"><circle cx="3" cy="3" r="3"/></g>
<g transform="translate(308,418) scale(3.7766666666667)"><circle cx="3" cy="3" r="3"/></g>
<g transform="translate(330,418) scale(3.7766666666667)"><circle cx="3" cy="3" r="3"/></g>
<g transform="translate(374,418) scale(3.7766666666667)"><circle cx="3" cy="3" r="3"/></g>
<g transform="translate(396,418) scale(3.7766666666667)"><circle cx="3" cy="3" r="3"/></g>
<g transform="translate(440,418) scale(3.7766666666667)"><circle cx="3" cy="3" r="3"/></g>
<g transform="translate(462,418) scale(3.7766666666667)"><circle cx="3" cy="3" r="3"/></g>
<g transform="translate(484,418) scale(3.7766666666667)"><circle cx="3" cy="3" r="3"/></g>
<g transform="translate(528,418) scale(3.7766666666667)"><circle cx="3" cy="3" r="3"/></g>
<g transform="translate(550,418) scale(3.7766666666667)"><circle cx="3" cy="3" r="3"/></g>
<g transform="translate(572,418) scale(3.7766666666667)"><circle cx="3" cy="3" r="3"/></g>
<g transform="translate(594,418) scale(3.7766666666667)"><circle cx="3" cy="3" r="3"/></g>
<g transform="translate(616,418) scale(3.7766666666667)"><circle cx="3" cy="3" r="3"/></g>
<g transform="translate(748,418) scale(3.7766666666667)"><circle cx="3" cy="3" r="3"/></g>
<g transform="translate(792,418) scale(3.7766666666667)"><circle cx="3" cy="3" r="3"/></g>
<g transform="translate(814,418) scale(3.7766666666667)"><circle cx="3" cy="3" r="3"/></g>
<g transform="translate(836,418) scale(3.7766666666667)"><circle cx="3" cy="3" r="3"/></g>
<g transform="translate(858,418) scale(3.7766666666667)"><circle cx="3" cy="3" r="3"/></g>
<g transform="translate(880,418) scale(3.7766666666667)"><circle cx="3" cy="3" r="3"/></g>
<g transform="translate(924,418) scale(3.7766666666667)"><circle cx="3" cy="3" r="3"/></g>
<g transform="translate(66,440) scale(3.7766666666667)"><circle cx="3" cy="3" r="3"/></g>
<g transform="translate(132,440) scale(3.7766666666667)"><circle cx="3" cy="3" r="3"/></g>
<g transform="translate(176,440) scale(3.7766666666667)"><circle cx="3" cy="3" r="3"/></g>
<g transform="translate(264,440) scale(3.7766666666667)"><circle cx="3" cy="3" r="3"/></g>
<g transform="translate(352,440) scale(3.7766666666667)"><circle cx="3" cy="3" r="3"/></g>
<g transform="translate(374,440) scale(3.7766666666667)"><circle cx="3" cy="3" r="3"/></g>
<g transform="translate(396,440) scale(3.7766666666667)"><circle cx="3" cy="3" r="3"/></g>
<g transform="translate(440,440) scale(3.7766666666667)"><circle cx="3" cy="3" r="3"/></g>
<g transform="translate(484,440) scale(3.7766666666667)"><circle cx="3" cy="3" r="3"/></g>
<g transform="translate(506,440) scale(3.7766666666667)"><circle cx="3" cy="3" r="3"/></g>
<g transform="translate(550,440) scale(3.7766666666667)"><circle cx="3" cy="3" r="3"/></g>
<g transform="translate(572,440) scale(3.7766666666667)"><circle cx="3" cy="3" r="3"/></g>
<g transform="translate(638,440) scale(3.7766666666667)"><circle cx="3" cy="3" r="3"/></g>
<g transform="translate(660,440) scale(3.7766666666667)"><circle cx="3" cy="3" r="3"/></g>
<g transform="translate(704,440) scale(3.7766666666667)"><circle cx="3" cy="3" r="3"/></g>
<g transform="translate(748,440) scale(3.7766666666667)"><circle cx="3" cy="3" r="3"/></g>
<g transform="translate(770,440) scale(3.7766666666667)"><circle cx="3" cy="3" r="3"/></g>
<g transform="translate(836,440) scale(3.7766666666667)"><circle cx="3" cy="3" r="3"/></g>
<g transform="translate(858,440) scale(3.7766666666667)"><circle cx="3" cy="3" r="3"/></g>
<g transform="translate(880,440) scale(3.7766666666667)"><circle cx="3" cy="3" r="3"/></g>
<g transform="translate(66,462) scale(3.7766666666667)"><circle cx="3" cy="3" r="3"/></g>
<g transform="translate(110,462) scale(3.7766666666667)"><circle cx="3" cy="3" r="3"/></g>
<g transform="translate(132,462) scale(3.7766666666667)"><circle cx="3" cy="3" r="3"/></g>
<g transform="translate(154,462) scale(3.7766666666667)"><circle cx="3" cy="3" r="3"/></g>
<g transform="translate(242,462) scale(3.7766666666667)"><circle cx="3" cy="3" r="3"/></g>
<g transform="translate(264,462) scale(3.7766666666667)"><circle cx="3" cy="3" r="3"/></g>
<g transform="translate(308,462) scale(3.7766666666667)"><circle cx="3" cy="3" r="3"/></g>
<g transform="translate(374,462) scale(3.7766666666667)"><circle cx="3" cy="3" r="3"/></g>
<g transform="translate(418,462) scale(3.7766666666667)"><circle cx="3" cy="3" r="3"/></g>
<g transform="translate(484,462) scale(3.7766666666667)"><circle cx="3" cy="3" r="3"/></g>
<g transform="translate(506,462) scale(3.7766666666667)"><circle cx="3" cy="3" r="3"/></g>
<g transform="translate(616,462) scale(3.7766666666667)"><circle cx="3" cy="3" r="3"/></g>
<g transform="translate(660,462) scale(3.7766666666667)"><circle cx="3" cy="3" r="3"/></g>
<g transform="translate(704,462) scale(3.7766666666667)"><circle cx="3" cy="3" r="3"/></g>
<g transform="translate(748,462) scale(3.7766666666667)"><circle cx="3" cy="3" r="3"/></g>
<g transform="translate(836,462) scale(3.7766666666667)"><circle cx="3" cy="3" r="3"/></g>
<g transform="translate(858,462) scale(3.7766666666667)"><circle cx="3" cy="3" r="3"/></g>
<g transform="translate(902,462) scale(3.7766666666667)"><circle cx="3" cy="3" r="3"/></g>
<g transform="translate(154,484) scale(3.7766666666667)"><circle cx="3" cy="3" r="3"/></g>
<g transform="translate(176,484) scale(3.7766666666667)"><circle cx="3" cy="3" r="3"/></g>
<g transform="translate(198,484) scale(3.7766666666667)"><circle cx="3" cy="3" r="3"/></g>
<g transform="translate(220,484) scale(3.7766666666667)"><circle cx="3" cy="3" r="3"/></g>
<g transform="translate(242,484) scale(3.7766666666667)"><circle cx="3" cy="3" r="3"/></g>
<g transform="translate(264,484) scale(3.7766666666667)"><circle cx="3" cy="3" r="3"/></g>
<g transform="translate(286,484) scale(3.7766666666667)"><circle cx="3" cy="3" r="3"/></g>
<g transform="translate(308,484) scale(3.7766666666667)"><circle cx="3" cy="3" r="3"/></g>
<g transform="translate(374,484) scale(3.7766666666667)"><circle cx="3" cy="3" r="3"/></g>
<g transform="translate(462,484) scale(3.7766666666667)"><circle cx="3" cy="3" r="3"/></g>
<g transform="translate(484,484) scale(3.7766666666667)"><circle cx="3" cy="3" r="3"/></g>
<g transform="translate(506,484) scale(3.7766666666667)"><circle cx="3" cy="3" r="3"/></g>
<g transform="translate(528,484) scale(3.7766666666667)"><circle cx="3" cy="3" r="3"/></g>
<g transform="translate(572,484) scale(3.7766666666667)"><circle cx="3" cy="3" r="3"/></g>
<g transform="translate(704,484) scale(3.7766666666667)"><circle cx="3" cy="3" r="3"/></g>
<g transform="translate(726,484) scale(3.7766666666667)"><circle cx="3" cy="3" r="3"/></g>
<g transform="translate(748,484) scale(3.7766666666667)"><circle cx="3" cy="3" r="3"/></g>
<g transform="translate(814,484) scale(3.7766666666667)"><circle cx="3" cy="3" r="3"/></g>
<g transform="translate(858,484) scale(3.7766666666667)"><circle cx="3" cy="3" r="3"/></g>
<g transform="translate(880,484) scale(3.7766666666667)"><circle cx="3" cy="3" r="3"/></g>
<g transform="translate(902,484) scale(3.7766666666667)"><circle cx="3" cy="3" r="3"/></g>
<g transform="translate(924,484) scale(3.7766666666667)"><circle cx="3" cy="3" r="3"/></g>
<g transform="translate(110,506) scale(3.7766666666667)"><circle cx="3" cy="3" r="3"/></g>
<g transform="translate(132,506) scale(3.7766666666667)"><circle cx="3" cy="3" r="3"/></g>
<g transform="translate(154,506) scale(3.7766666666667)"><circle cx="3" cy="3" r="3"/></g>
<g transform="translate(198,506) scale(3.7766666666667)"><circle cx="3" cy="3" r="3"/></g>
<g transform="translate(264,506) scale(3.7766666666667)"><circle cx="3" cy="3" r="3"/></g>
<g transform="translate(374,506) scale(3.7766666666667)"><circle cx="3" cy="3" r="3"/></g>
<g transform="translate(418,506) scale(3.7766666666667)"><circle cx="3" cy="3" r="3"/></g>
<g transform="translate(440,506) scale(3.7766666666667)"><circle cx="3" cy="3" r="3"/></g>
<g transform="translate(462,506) scale(3.7766666666667)"><circle cx="3" cy="3" r="3"/></g>
<g transform="translate(484,506) scale(3.7766666666667)"><circle cx="3" cy="3" r="3"/></g>
<g transform="translate(506,506) scale(3.7766666666667)"><circle cx="3" cy="3" r="3"/></g>
<g transform="translate(594,506) scale(3.7766666666667)"><circle cx="3" cy="3" r="3"/></g>
<g transform="translate(660,506) scale(3.7766666666667)"><circle cx="3" cy="3" r="3"/></g>
<g transform="translate(682,506) scale(3.7766666666667)"><circle cx="3" cy="3" r="3"/></g>
<g transform="translate(704,506) scale(3.7766666666667)"><circle cx="3" cy="3" r="3"/></g>
<g transform="translate(726,506) scale(3.7766666666667)"><circle cx="3" cy="3" r="3"/></g>
<g transform="translate(748,506) scale(3.7766666666667)"><circle cx="3" cy="3" r="3"/></g>
<g transform="translate(770,506) scale(3.7766666666667)"><circle cx="3" cy="3" r="3"/></g>
<g transform="translate(792,506) scale(3.7766666666667)"><circle cx="3" cy="3" r="3"/></g>
<g transform="translate(836,506) scale(3.7766666666667)"><circle cx="3" cy="3" r="3"/></g>
<g transform="translate(902,506) scale(3.7766666666667)"><circle cx="3" cy="3" r="3"/></g>
<g transform="translate(924,506) scale(3.7766666666667)"><circle cx="3" cy="3" r="3"/></g>
<g transform="translate(44,528) scale(3.7766666666667)"><circle cx="3" cy="3" r="3"/></g>
<g transform="translate(88,528) scale(3.7766666666667)"><circle cx="3" cy="3" r="3"/></g>
<g transform="translate(132,528) scale(3.7766666666667)"><circle cx="3" cy="3" r="3"/></g>
<g transform="translate(154,528) scale(3.7766666666667)"><circle cx="3" cy="3" r="3"/></g>
<g transform="translate(176,528) scale(3.7766666666667)"><circle cx="3" cy="3" r="3"/></g>
<g transform="translate(198,528) scale(3.7766666666667)"><circle cx="3" cy="3" r="3"/></g>
<g transform="translate(242,528) scale(3.7766666666667)"><circle cx="3" cy="3" r="3"/></g>
<g transform="translate(330,528) scale(3.7766666666667)"><circle cx="3" cy="3" r="3"/></g>
<g transform="translate(352,528) scale(3.7766666666667)"><circle cx="3" cy="3" r="3"/></g>
<g transform="translate(418,528) scale(3.7766666666667)"><circle cx="3" cy="3" r="3"/></g>
<g transform="translate(440,528) scale(3.7766666666667)"><circle cx="3" cy="3" r="3"/></g>
<g transform="translate(484,528) scale(3.7766666666667)"><circle cx="3" cy="3" r="3"/></g>
<g transform="translate(528,528) scale(3.7766666666667)"><circle cx="3" cy="3" r="3"/></g>
<g transform="translate(594,528) scale(3.7766666666667)"><circle cx="3" cy="3" r="3"/></g>
<g transform="translate(616,528) scale(3.7766666666667)"><circle cx="3" cy="3" r="3"/></g>
<g transform="translate(638,528) scale(3.7766666666667)"><circle cx="3" cy="3" r="3"/></g>
<g transform="translate(660,528) scale(3.7766666666667)"><circle cx="3" cy="3" r="3"/></g>
<g transform="translate(682,528) scale(3.7766666666667)"><circle cx="3" cy="3" r="3"/></g>
<g transform="translate(748,528) scale(3.7766666666667)"><circle cx="3" cy="3" r="3"/></g>
<g transform="translate(770,528) scale(3.7766666666667)"><circle cx="3" cy="3" r="3"/></g>
<g transform="translate(814,528) scale(3.7766666666667)"><circle cx="3" cy="3" r="3"/></g>
<g transform="translate(44,550) scale(3.7766666666667)"><circle cx="3" cy="3" r="3"/></g>
<g transform="translate(66,550) scale(3.7766666666667)"><circle cx="3" cy="3" r="3"/></g>
<g transform="translate(132,550) scale(3.7766666666667)"><circle cx="3" cy="3" r="3"/></g>
<g transform="translate(154,550) scale(3.7766666666667)"><circle cx="3" cy="3" r="3"/></g>
<g transform="translate(198,550) scale(3.7766666666667)"><circle cx="3" cy="3" r="3"/></g>
<g transform="translate(220,550) scale(3.7766666666667)"><circle cx="3" cy="3" r="3"/></g>
<g transform="translate(242,550) scale(3.7766666666667)"><circle cx="3" cy="3" r="3"/></g>
<g transform="translate(308,550) scale(3.7766666666667)"><circle cx="3" cy="3" r="3"/></g>
<g transform="translate(330,550) scale(3.7766666666667)"><circle cx="3" cy="3" r="3"/></g>
<g transform="translate(418,550) scale(3.7766666666667)"><circle cx="3" cy="3" r="3"/></g>
<g transform="translate(462,550) scale(3.7766666666667)"><circle cx="3" cy="3" r="3"/></g>
<g transform="translate(484,550) scale(3.7766666666667)"><circle cx="3" cy="3" r="3"/></g>
<g transform="translate(506,550) scale(3.7766666666667)"><circle cx="3" cy="3" r="3"/></g>
<g transform="translate(550,550) scale(3.7766666666667)"><circle cx="3" cy="3" r="3"/></g>
<g transform="translate(660,550) scale(3.7766666666667)"><circle cx="3" cy="3" r="3"/></g>
<g transform="translate(704,550) scale(3.7766666666667)"><circle cx="3" cy="3" r="3"/></g>
<g transform="translate(726,550) scale(3.7766666666667)"><circle cx="3" cy="3" r="3"/></g>
<g transform="translate(748,550) scale(3.7766666666667)"><circle cx="3" cy="3" r="3"/></g>
<g transform="translate(770,550) scale(3.7766666666667)"><circle cx="3" cy="3" r="3"/></g>
<g transform="translate(792,550) scale(3.7766666666667)"><circle cx="3" cy="3" r="3"/></g>
<g transform="translate(814,550) scale(3.7766666666667)"><circle cx="3" cy="3" r="3"/></g>
<g transform="translate(902,550) scale(3.7766666666667)"><circle cx="3" cy="3" r="3"/></g>
<g transform="translate(924,550) scale(3.7766666666667)"><circle cx="3" cy="3" r="3"/></g>
<g transform="translate(44,572) scale(3.7766666666667)"><circle cx="3" cy="3" r="3"/></g>
<g transform="translate(88,572) scale(3.7766666666667)"><circle cx="3" cy="3" r="3"/></g>
<g transform="translate(132,572) scale(3.7766666666667)"><circle cx="3" cy="3" r="3"/></g>
<g transform="translate(176,572) scale(3.7766666666667)"><circle cx="3" cy="3" r="3"/></g>
<g transform="translate(264,572) scale(3.7766666666667)"><circle cx="3" cy="3" r="3"/></g>
<g transform="translate(286,572) scale(3.7766666666667)"><circle cx="3" cy="3" r="3"/></g>
<g transform="translate(330,572) scale(3.7766666666667)"><circle cx="3" cy="3" r="3"/></g>
<g transform="translate(352,572) scale(3.7766666666667)"><circle cx="3" cy="3" r="3"/></g>
<g transform="translate(374,572) scale(3.7766666666667)"><circle cx="3" cy="3" r="3"/></g>
<g transform="translate(396,572) scale(3.7766666666667)"><circle cx="3" cy="3" r="3"/></g>
<g transform="translate(418,572) scale(3.7766666666667)"><circle cx="3" cy="3" r="3"/></g>
<g transform="translate(440,572) scale(3.7766666666667)"><circle cx="3" cy="3" r="3"/></g>
<g transform="translate(462,572) scale(3.7766666666667)"><circle cx="3" cy="3" r="3"/></g>
<g transform="translate(528,572) scale(3.7766666666667)"><circle cx="3" cy="3" r="3"/></g>
<g transform="translate(550,572) scale(3.7766666666667)"><circle cx="3" cy="3" r="3"/></g>
<g transform="translate(594,572) scale(3.7766666666667)"><circle cx="3" cy="3" r="3"/></g>
<g transform="translate(682,572) scale(3.7766666666667)"><circle cx="3" cy="3" r="3"/></g>
<g transform="translate(726,572) scale(3.7766666666667)"><circle cx="3" cy="3" r="3"/></g>
<g transform="translate(858,572) scale(3.7766666666667)"><circle cx="3" cy="3" r="3"/></g>
<g transform="translate(880,572) scale(3.7766666666667)"><circle cx="3" cy="3" r="3"/></g>
<g transform="translate(44,594) scale(3.7766666666667)"><circle cx="3" cy="3" r="3"/></g>
<g transform="translate(132,594) scale(3.7766666666667)"><circle cx="3" cy="3" r="3"/></g>
<g transform="translate(154,594) scale(3.7766666666667)"><circle cx="3" cy="3" r="3"/></g>
<g transform="translate(198,594) scale(3.7766666666667)"><circle cx="3" cy="3" r="3"/></g>
<g transform="translate(220,594) scale(3.7766666666667)"><circle cx="3" cy="3" r="3"/></g>
<g transform="translate(308,594) scale(3.7766666666667)"><circle cx="3" cy="3" r="3"/></g>
<g transform="translate(352,594) scale(3.7766666666667)"><circle cx="3" cy="3" r="3"/></g>
<g transform="translate(396,594) scale(3.7766666666667)"><circle cx="3" cy="3" r="3"/></g>
<g transform="translate(440,594) scale(3.7766666666667)"><circle cx="3" cy="3" r="3"/></g>
<g transform="translate(484,594) scale(3.7766666666667)"><circle cx="3" cy="3" r="3"/></g>
<g transform="translate(506,594) scale(3.7766666666667)"><circle cx="3" cy="3" r="3"/></g>
<g transform="translate(528,594) scale(3.7766666666667)"><circle cx="3" cy="3" r="3"/></g>
<g transform="translate(572,594) scale(3.7766666666667)"><circle cx="3" cy="3" r="3"/></g>
<g transform="translate(594,594) scale(3.7766666666667)"><circle cx="3" cy="3" r="3"/></g>
<g transform="translate(616,594) scale(3.7766666666667)"><circle cx="3" cy="3" r="3"/></g>
<g transform="translate(704,594) scale(3.7766666666667)"><circle cx="3" cy="3" r="3"/></g>
<g transform="translate(726,594) scale(3.7766666666667)"><circle cx="3" cy="3" r="3"/></g>
<g transform="translate(792,594) scale(3.7766666666667)"><circle cx="3" cy="3" r="3"/></g>
<g transform="translate(814,594) scale(3.7766666666667)"><circle cx="3" cy="3" r="3"/></g>
<g transform="translate(836,594) scale(3.7766666666667)"><circle cx="3" cy="3" r="3"/></g>
<g transform="translate(858,594) scale(3.7766666666667)"><circle cx="3" cy="3" r="3"/></g>
<g transform="translate(44,616) scale(3.7766666666667)"><circle cx="3" cy="3" r="3"/></g>
<g transform="translate(88,616) scale(3.7766666666667)"><circle cx="3" cy="3" r="3"/></g>
<g transform="translate(110,616) scale(3.7766666666667)"><circle cx="3" cy="3" r="3"/></g>
<g transform="translate(154,616) scale(3.7766666666667)"><circle cx="3" cy="3" r="3"/></g>
<g transform="translate(176,616) scale(3.7766666666667)"><circle cx="3" cy="3" r="3"/></g>
<g transform="translate(220,616) scale(3.7766666666667)"><circle cx="3" cy="3" r="3"/></g>
<g transform="translate(264,616) scale(3.7766666666667)"><circle cx="3" cy="3" r="3"/></g>
<g transform="translate(286,616) scale(3.7766666666667)"><circle cx="3" cy="3" r="3"/></g>
<g transform="translate(352,616) scale(3.7766666666667)"><circle cx="3" cy="3" r="3"/></g>
<g transform="translate(418,616) scale(3.7766666666667)"><circle cx="3" cy="3" r="3"/></g>
<g transform="translate(440,616) scale(3.7766666666667)"><circle cx="3" cy="3" r="3"/></g>
<g transform="translate(462,616) scale(3.7766666666667)"><circle cx="3" cy="3" r="3"/></g>
<g transform="translate(484,616) scale(3.7766666666667)"><circle cx="3" cy="3" r="3"/></g>
<g transform="translate(594,616) scale(3.7766666666667)"><circle cx="3" cy="3" r="3"/></g>
<g transform="translate(638,616) scale(3.7766666666667)"><circle cx="3" cy="3" r="3"/></g>
<g transform="translate(660,616) scale(3.7766666666667)"><circle cx="3" cy="3" r="3"/></g>
<g transform="translate(682,616) scale(3.7766666666667)"><circle cx="3" cy="3" r="3"/></g>
<g transform="translate(704,616) scale(3.7766666666667)"><circle cx="3" cy="3" r="3"/></g>
<g transform="translate(748,616) scale(3.7766666666667)"><circle cx="3" cy="3" r="3"/></g>
<g transform="translate(770,616) scale(3.7766666666667)"><circle cx="3" cy="3" r="3"/></g>
<g transform="translate(792,616) scale(3.7766666666667)"><circle cx="3" cy="3" r="3"/></g>
<g transform="translate(836,616) scale(3.7766666666667)"><circle cx="3" cy="3" r="3"/></g>
<g transform="translate(66,638) scale(3.7766666666667)"><circle cx="3" cy="3" r="3"/></g>
<g transform="translate(132,638) scale(3.7766666666667)"><circle cx="3" cy="3" r="3"/></g>
<g transform="translate(154,638) scale(3.7766666666667)"><circle cx="3" cy="3" r="3"/></g>
<g transform="translate(198,638) scale(3.7766666666667)"><circle cx="3" cy="3" r="3"/></g>
<g transform="translate(220,638) scale(3.7766666666667)"><circle cx="3" cy="3" r="3"/></g>
<g transform="translate(242,638) scale(3.7766666666667)"><circle cx="3" cy="3" r="3"/></g>
<g transform="translate(330,638) scale(3.7766666666667)"><circle cx="3" cy="3" r="3"/></g>
<g transform="translate(396,638) scale(3.7766666666667)"><circle cx="3" cy="3" r="3"/></g>
<g transform="translate(506,638) scale(3.7766666666667)"><circle cx="3" cy="3" r="3"/></g>
<g transform="translate(616,638) scale(3.7766666666667)"><circle cx="3" cy="3" r="3"/></g>
<g transform="translate(638,638) scale(3.7766666666667)"><circle cx="3" cy="3" r="3"/></g>
<g transform="translate(660,638) scale(3.7766666666667)"><circle cx="3" cy="3" r="3"/></g>
<g transform="translate(704,638) scale(3.7766666666667)"><circle cx="3" cy="3" r="3"/></g>
<g transform="translate(726,638) scale(3.7766666666667)"><circle cx="3" cy="3" r="3"/></g>
<g transform="translate(748,638) scale(3.7766666666667)"><circle cx="3" cy="3" r="3"/></g>
<g transform="translate(814,638) scale(3.7766666666667)"><circle cx="3" cy="3" r="3"/></g>
<g transform="translate(836,638) scale(3.7766666666667)"><circle cx="3" cy="3" r="3"/></g>
<g transform="translate(858,638) scale(3.7766666666667)"><circle cx="3" cy="3" r="3"/></g>
<g transform="translate(44,660) scale(3.7766666666667)"><circle cx="3" cy="3" r="3"/></g>
<g transform="translate(110,660) scale(3.7766666666667)"><circle cx="3" cy="3" r="3"/></g>
<g transform="translate(176,660) scale(3.7766666666667)"><circle cx="3" cy="3" r="3"/></g>
<g transform="translate(198,660) scale(3.7766666666667)"><circle cx="3" cy="3" r="3"/></g>
<g transform="translate(220,660) scale(3.7766666666667)"><circle cx="3" cy="3" r="3"/></g>
<g transform="translate(396,660) scale(3.7766666666667)"><circle cx="3" cy="3" r="3"/></g>
<g transform="translate(440,660) scale(3.7766666666667)"><circle cx="3" cy="3" r="3"/></g>
<g transform="translate(462,660) scale(3.7766666666667)"><circle cx="3" cy="3" r="3"/></g>
<g transform="translate(484,660) scale(3.7766666666667)"><circle cx="3" cy="3" r="3"/></g>
<g transform="translate(594,660) scale(3.7766666666667)"><circle cx="3" cy="3" r="3"/></g>
<g transform="translate(616,660) scale(3.7766666666667)"><circle cx="3" cy="3" r="3"/></g>
<g transform="translate(638,660) scale(3.7766666666667)"><circle cx="3" cy="3" r="3"/></g>
<g transform="translate(660,660) scale(3.7766666666667)"><circle cx="3" cy="3" r="3"/></g>
<g transform="translate(682,660) scale(3.7766666666667)"><circle cx="3" cy="3" r="3"/></g>
<g transform="translate(726,660) scale(3.7766666666667)"><circle cx="3" cy="3" r="3"/></g>
<g transform="translate(748,660) scale(3.7766666666667)"><circle cx="3" cy="3" r="3"/></g>
<g transform="translate(858,660) scale(3.7766666666667)"><circle cx="3" cy="3" r="3"/></g>
<g transform="translate(880,660) scale(3.7766666666667)"><circle cx="3" cy="3" r="3"/></g>
<g transform="translate(902,660) scale(3.7766666666667)"><circle cx="3" cy="3" r="3"/></g>
<g transform="translate(44,682) scale(3.7766666666667)"><circle cx="3" cy="3" r="3"/></g>
<g transform="translate(132,682) scale(3.7766666666667)"><circle cx="3" cy="3" r="3"/></g>
<g transform="translate(154,682) scale(3.7766666666667)"><circle cx="3" cy="3" r="3"/></g>
<g transform="translate(198,682) scale(3.7766666666667)"><circle cx="3" cy="3" r="3"/></g>
<g transform="translate(220,682) scale(3.7766666666667)"><circle cx="3" cy="3" r="3"/></g>
<g transform="translate(264,682) scale(3.7766666666667)"><circle cx="3" cy="3" r="3"/></g>
<g transform="translate(352,682) scale(3.7766666666667)"><circle cx="3" cy="3" r="3"/></g>
<g transform="translate(374,682) scale(3.7766666666667)"><circle cx="3" cy="3" r="3"/></g>
<g transform="translate(396,682) scale(3.7766666666667)"><circle cx="3" cy="3" r="3"/></g>
<g transform="translate(440,682) scale(3.7766666666667)"><circle cx="3" cy="3" r="3"/></g>
<g transform="translate(462,682) scale(3.7766666666667)"><circle cx="3" cy="3" r="3"/></g>
<g transform="translate(506,682) scale(3.7766666666667)"><circle cx="3" cy="3" r="3"/></g>
<g transform="translate(550,682) scale(3.7766666666667)"><circle cx="3" cy="3" r="3"/></g>
<g transform="translate(572,682) scale(3.7766666666667)"><circle cx="3" cy="3" r="3"/></g>
<g transform="translate(594,682) scale(3.7766666666667)"><circle cx="3" cy="3" r="3"/></g>
<g transform="translate(616,682) scale(3.7766666666667)"><circle cx="3" cy="3" r="3"/></g>
<g transform="translate(638,682) scale(3.7766666666667)"><circle cx="3" cy="3" r="3"/></g>
<g transform="translate(704,682) scale(3.7766666666667)"><circle cx="3" cy="3" r="3"/></g>
<g transform="translate(726,682) scale(3.7766666666667)"><circle cx="3" cy="3" r="3"/></g>
<g transform="translate(814,682) scale(3.7766666666667)"><circle cx="3" cy="3" r="3"/></g>
<g transform="translate(836,682) scale(3.7766666666667)"><circle cx="3" cy="3" r="3"/></g>
<g transform="translate(858,682) scale(3.7766666666667)"><circle cx="3" cy="3" r="3"/></g>
<g transform="translate(924,682) scale(3.7766666666667)"><circle cx="3" cy="3" r="3"/></g>
<g transform="translate(44,704) scale(3.7766666666667)"><circle cx="3" cy="3" r="3"/></g>
<g transform="translate(88,704) scale(3.7766666666667)"><circle cx="3" cy="3" r="3"/></g>
<g transform="translate(154,704) scale(3.7766666666667)"><circle cx="3" cy="3" r="3"/></g>
<g transform="translate(176,704) scale(3.7766666666667)"><circle cx="3" cy="3" r="3"/></g>
<g transform="translate(198,704) scale(3.7766666666667)"><circle cx="3" cy="3" r="3"/></g>
<g transform="translate(220,704) scale(3.7766666666667)"><circle cx="3" cy="3" r="3"/></g>
<g transform="translate(242,704) scale(3.7766666666667)"><circle cx="3" cy="3" r="3"/></g>
<g transform="translate(308,704) scale(3.7766666666667)"><circle cx="3" cy="3" r="3"/></g>
<g transform="translate(330,704) scale(3.7766666666667)"><circle cx="3" cy="3" r="3"/></g>
<g transform="translate(352,704) scale(3.7766666666667)"><circle cx="3" cy="3" r="3"/></g>
<g transform="translate(396,704) scale(3.7766666666667)"><circle cx="3" cy="3" r="3"/></g>
<g transform="translate(418,704) scale(3.7766666666667)"><circle cx="3" cy="3" r="3"/></g>
<g transform="translate(440,704) scale(3.7766666666667)"><circle cx="3" cy="3" r="3"/></g>
<g transform="translate(484,704) scale(3.7766666666667)"><circle cx="3" cy="3" r="3"/></g>
<g transform="translate(550,704) scale(3.7766666666667)"><circle cx="3" cy="3" r="3"/></g>
<g transform="translate(572,704) scale(3.7766666666667)"><circle cx="3" cy="3" r="3"/></g>
<g transform="translate(616,704) scale(3.7766666666667)"><circle cx="3" cy="3" r="3"/></g>
<g transform="translate(638,704) scale(3.7766666666667)"><circle cx="3" cy="3" r="3"/></g>
<g transform="translate(660,704) scale(3.7766666666667)"><circle cx="3" cy="3" r="3"/></g>
<g transform="translate(682,704) scale(3.7766666666667)"><circle cx="3" cy="3" r="3"/></g>
<g transform="translate(704,704) scale(3.7766666666667)"><circle cx="3" cy="3" r="3"/></g>
<g transform="translate(748,704) scale(3.7766666666667)"><circle cx="3" cy="3" r="3"/></g>
<g transform="translate(770,704) scale(3.7766666666667)"><circle cx="3" cy="3" r="3"/></g>
<g transform="translate(792,704) scale(3.7766666666667)"><circle cx="3" cy="3" r="3"/></g>
<g transform="translate(858,704) scale(3.7766666666667)"><circle cx="3" cy="3" r="3"/></g>
<g transform="translate(44,726) scale(3.7766666666667)"><circle cx="3" cy="3" r="3"/></g>
<g transform="translate(88,726) scale(3.7766666666667)"><circle cx="3" cy="3" r="3"/></g>
<g transform="translate(154,726) scale(3.7766666666667)"><circle cx="3" cy="3" r="3"/></g>
<g transform="translate(198,726) scale(3.7766666666667)"><circle cx="3" cy="3" r="3"/></g>
<g transform="translate(220,726) scale(3.7766666666667)"><circle cx="3" cy="3" r="3"/></g>
<g transform="translate(352,726) scale(3.7766666666667)"><circle cx="3" cy="3" r="3"/></g>
<g transform="translate(374,726) scale(3.7766666666667)"><circle cx="3" cy="3" r="3"/></g>
<g transform="translate(506,726) scale(3.7766666666667)"><circle cx="3" cy="3" r="3"/></g>
<g transform="translate(572,726) scale(3.7766666666667)"><circle cx="3" cy="3" r="3"/></g>
<g transform="translate(616,726) scale(3.7766666666667)"><circle cx="3" cy="3" r="3"/></g>
<g transform="translate(638,726) scale(3.7766666666667)"><circle cx="3" cy="3" r="3"/></g>
<g transform="translate(704,726) scale(3.7766666666667)"><circle cx="3" cy="3" r="3"/></g>
<g transform="translate(726,726) scale(3.7766666666667)"><circle cx="3" cy="3" r="3"/></g>
<g transform="translate(748,726) scale(3.7766666666667)"><circle cx="3" cy="3" r="3"/></g>
<g transform="translate(770,726) scale(3.7766666666667)"><circle cx="3" cy="3" r="3"/></g>
<g transform="translate(792,726) scale(3.7766666666667)"><circle cx="3" cy="3" r="3"/></g>
<g transform="translate(836,726) scale(3.7766666666667)"><circle cx="3" cy="3" r="3"/></g>
<g transform="translate(858,726) scale(3.7766666666667)"><circle cx="3" cy="3" r="3"/></g>
<g transform="translate(924,726) scale(3.7766666666667)"><circle cx="3" cy="3" r="3"/></g>
<g transform="translate(44,748) scale(3.7766666666667)"><circle cx="3" cy="3" r="3"/></g>
<g transform="translate(88,748) scale(3.7766666666667)"><circle cx="3" cy="3" r="3"/></g>
<g transform="translate(110,748) scale(3.7766666666667)"><circle cx="3" cy="3" r="3"/></g>
<g transform="translate(132,748) scale(3.7766666666667)"><circle cx="3" cy="3" r="3"/></g>
<g transform="translate(176,748) scale(3.7766666666667)"><circle cx="3" cy="3" r="3"/></g>
<g transform="translate(220,748) scale(3.7766666666667)"><circle cx="3" cy="3" r="3"/></g>
<g transform="translate(264,748) scale(3.7766666666667)"><circle cx="3" cy="3" r="3"/></g>
<g transform="translate(286,748) scale(3.7766666666667)"><circle cx="3" cy="3" r="3"/></g>
<g transform="translate(308,748) scale(3.7766666666667)"><circle cx="3" cy="3" r="3"/></g>
<g transform="translate(330,748) scale(3.7766666666667)"><circle cx="3" cy="3" r="3"/></g>
<g transform="translate(462,748) scale(3.7766666666667)"><circle cx="3" cy="3" r="3"/></g>
<g transform="translate(506,748) scale(3.7766666666667)"><circle cx="3" cy="3" r="3"/></g>
<g transform="translate(638,748) scale(3.7766666666667)"><circle cx="3" cy="3" r="3"/></g>
<g transform="translate(660,748) scale(3.7766666666667)"><circle cx="3" cy="3" r="3"/></g>
<g transform="translate(682,748) scale(3.7766666666667)"><circle cx="3" cy="3" r="3"/></g>
<g transform="translate(704,748) scale(3.7766666666667)"><circle cx="3" cy="3" r="3"/></g>
<g transform="translate(726,748) scale(3.7766666666667)"><circle cx="3" cy="3" r="3"/></g>
<g transform="translate(748,748) scale(3.7766666666667)"><circle cx="3" cy="3" r="3"/></g>
<g transform="translate(770,748) scale(3.7766666666667)"><circle cx="3" cy="3" r="3"/></g>
<g transform="translate(792,748) scale(3.7766666666667)"><circle cx="3" cy="3" r="3"/></g>
<g transform="translate(814,748) scale(3.7766666666667)"><circle cx="3" cy="3" r="3"/></g>
<g transform="translate(836,748) scale(3.7766666666667)"><circle cx="3" cy="3" r="3"/></g>
<g transform="translate(858,748) scale(3.7766666666667)"><circle cx="3" cy="3" r="3"/></g>
<g transform="translate(880,748) scale(3.7766666666667)"><circle cx="3" cy="3" r="3"/></g>
<g transform="translate(924,748) scale(3.7766666666667)"><circle cx="3" cy="3" r="3"/></g>
<g transform="translate(220,770) scale(3.7766666666667)"><circle cx="3" cy="3" r="3"/></g>
<g transform="translate(264,770) scale(3.7766666666667)"><circle cx="3" cy="3" r="3"/></g>
<g transform="translate(374,770) scale(3.7766666666667)"><circle cx="3" cy="3" r="3"/></g>
<g transform="translate(418,770) scale(3.7766666666667)"><circle cx="3" cy="3" r="3"/></g>
<g transform="translate(440,770) scale(3.7766666666667)"><circle cx="3" cy="3" r="3"/></g>
<g transform="translate(462,770) scale(3.7766666666667)"><circle cx="3" cy="3" r="3"/></g>
<g transform="translate(506,770) scale(3.7766666666667)"><circle cx="3" cy="3" r="3"/></g>
<g transform="translate(594,770) scale(3.7766666666667)"><circle cx="3" cy="3" r="3"/></g>
<g transform="translate(616,770) scale(3.7766666666667)"><circle cx="3" cy="3" r="3"/></g>
<g transform="translate(638,770) scale(3.7766666666667)"><circle cx="3" cy="3" r="3"/></g>
<g transform="translate(660,770) scale(3.7766666666667)"><circle cx="3" cy="3" r="3"/></g>
<g transform="translate(682,770) scale(3.7766666666667)"><circle cx="3" cy="3" r="3"/></g>
<g transform="translate(726,770) scale(3.7766666666667)"><circle cx="3" cy="3" r="3"/></g>
<g transform="translate(748,770) scale(3.7766666666667)"><circle cx="3" cy="3" r="3"/></g>
<g transform="translate(836,770) scale(3.7766666666667)"><circle cx="3" cy="3" r="3"/></g>
<g transform="translate(902,770) scale(3.7766666666667)"><circle cx="3" cy="3" r="3"/></g>
<g transform="translate(924,770) scale(3.7766666666667)"><circle cx="3" cy="3" r="3"/></g>
<g transform="translate(286,792) scale(3.7766666666667)"><circle cx="3" cy="3" r="3"/></g>
<g transform="translate(330,792) scale(3.7766666666667)"><circle cx="3" cy="3" r="3"/></g>
<g transform="translate(374,792) scale(3.7766666666667)"><circle cx="3" cy="3" r="3"/></g>
<g transform="translate(396,792) scale(3.7766666666667)"><circle cx="3" cy="3" r="3"/></g>
<g transform="translate(418,792) scale(3.7766666666667)"><circle cx="3" cy="3" r="3"/></g>
<g transform="translate(462,792) scale(3.7766666666667)"><circle cx="3" cy="3" r="3"/></g>
<g transform="translate(484,792) scale(3.7766666666667)"><circle cx="3" cy="3" r="3"/></g>
<g transform="translate(506,792) scale(3.7766666666667)"><circle cx="3" cy="3" r="3"/></g>
<g transform="translate(528,792) scale(3.7766666666667)"><circle cx="3" cy="3" r="3"/></g>
<g transform="translate(638,792) scale(3.7766666666667)"><circle cx="3" cy="3" r="3"/></g>
<g transform="translate(682,792) scale(3.7766666666667)"><circle cx="3" cy="3" r="3"/></g>
<g transform="translate(726,792) scale(3.7766666666667)"><circle cx="3" cy="3" r="3"/></g>
<g transform="translate(748,792) scale(3.7766666666667)"><circle cx="3" cy="3" r="3"/></g>
<g transform="translate(792,792) scale(3.7766666666667)"><circle cx="3" cy="3" r="3"/></g>
<g transform="translate(836,792) scale(3.7766666666667)"><circle cx="3" cy="3" r="3"/></g>
<g transform="translate(858,792) scale(3.7766666666667)"><circle cx="3" cy="3" r="3"/></g>
<g transform="translate(880,792) scale(3.7766666666667)"><circle cx="3" cy="3" r="3"/></g>
<g transform="translate(286,814) scale(3.7766666666667)"><circle cx="3" cy="3" r="3"/></g>
<g transform="translate(308,814) scale(3.7766666666667)"><circle cx="3" cy="3" r="3"/></g>
<g transform="translate(352,814) scale(3.7766666666667)"><circle cx="3" cy="3" r="3"/></g>
<g transform="translate(374,814) scale(3.7766666666667)"><circle cx="3" cy="3" r="3"/></g>
<g transform="translate(418,814) scale(3.7766666666667)"><circle cx="3" cy="3" r="3"/></g>
<g transform="translate(506,814) scale(3.7766666666667)"><circle cx="3" cy="3" r="3"/></g>
<g transform="translate(528,814) scale(3.7766666666667)"><circle cx="3" cy="3" r="3"/></g>
<g transform="translate(550,814) scale(3.7766666666667)"><circle cx="3" cy="3" r="3"/></g>
<g transform="translate(572,814) scale(3.7766666666667)"><circle cx="3" cy="3" r="3"/></g>
<g transform="translate(638,814) scale(3.7766666666667)"><circle cx="3" cy="3" r="3"/></g>
<g transform="translate(682,814) scale(3.7766666666667)"><circle cx="3" cy="3" r="3"/></g>
<g transform="translate(704,814) scale(3.7766666666667)"><circle cx="3" cy="3" r="3"/></g>
<g transform="translate(748,814) scale(3.7766666666667)"><circle cx="3" cy="3" r="3"/></g>
<g transform="translate(836,814) scale(3.7766666666667)"><circle cx="3" cy="3" r="3"/></g>
<g transform="translate(858,814) scale(3.7766666666667)"><circle cx="3" cy="3" r="3"/></g>
<g transform="translate(924,814) scale(3.7766666666667)"><circle cx="3" cy="3" r="3"/></g>
<g transform="translate(220,836) scale(3.7766666666667)"><circle cx="3" cy="3" r="3"/></g>
<g transform="translate(264,836) scale(3.7766666666667)"><circle cx="3" cy="3" r="3"/></g>
<g transform="translate(286,836) scale(3.7766666666667)"><circle cx="3" cy="3" r="3"/></g>
<g transform="translate(330,836) scale(3.7766666666667)"><circle cx="3" cy="3" r="3"/></g>
<g transform="translate(352,836) scale(3.7766666666667)"><circle cx="3" cy="3" r="3"/></g>
<g transform="translate(418,836) scale(3.7766666666667)"><circle cx="3" cy="3" r="3"/></g>
<g transform="translate(440,836) scale(3.7766666666667)"><circle cx="3" cy="3" r="3"/></g>
<g transform="translate(462,836) scale(3.7766666666667)"><circle cx="3" cy="3" r="3"/></g>
<g transform="translate(484,836) scale(3.7766666666667)"><circle cx="3" cy="3" r="3"/></g>
<g transform="translate(506,836) scale(3.7766666666667)"><circle cx="3" cy="3" r="3"/></g>
<g transform="translate(528,836) scale(3.7766666666667)"><circle cx="3" cy="3" r="3"/></g>
<g transform="translate(572,836) scale(3.7766666666667)"><circle cx="3" cy="3" r="3"/></g>
<g transform="translate(638,836) scale(3.7766666666667)"><circle cx="3" cy="3" r="3"/></g>
<g transform="translate(660,836) scale(3.7766666666667)"><circle cx="3" cy="3" r="3"/></g>
<g transform="translate(748,836) scale(3.7766666666667)"><circle cx="3" cy="3" r="3"/></g>
<g transform="translate(770,836) scale(3.7766666666667)"><circle cx="3" cy="3" r="3"/></g>
<g transform="translate(792,836) scale(3.7766666666667)"><circle cx="3" cy="3" r="3"/></g>
<g transform="translate(814,836) scale(3.7766666666667)"><circle cx="3" cy="3" r="3"/></g>
<g transform="translate(836,836) scale(3.7766666666667)"><circle cx="3" cy="3" r="3"/></g>
<g transform="translate(858,836) scale(3.7766666666667)"><circle cx="3" cy="3" r="3"/></g>
<g transform="translate(880,836) scale(3.7766666666667)"><circle cx="3" cy="3" r="3"/></g>
<g transform="translate(902,836) scale(3.7766666666667)"><circle cx="3" cy="3" r="3"/></g>
<g transform="translate(220,858) scale(3.7766666666667)"><circle cx="3" cy="3" r="3"/></g>
<g transform="translate(242,858) scale(3.7766666666667)"><circle cx="3" cy="3" r="3"/></g>
<g transform="translate(308,858) scale(3.7766666666667)"><circle cx="3" cy="3" r="3"/></g>
<g transform="translate(330,858) scale(3.7766666666667)"><circle cx="3" cy="3" r="3"/></g>
<g transform="translate(396,858) scale(3.7766666666667)"><circle cx="3" cy="3" r="3"/></g>
<g transform="translate(418,858) scale(3.7766666666667)"><circle cx="3" cy="3" r="3"/></g>
<g transform="translate(462,858) scale(3.7766666666667)"><circle cx="3" cy="3" r="3"/></g>
<g transform="translate(484,858) scale(3.7766666666667)"><circle cx="3" cy="3" r="3"/></g>
<g transform="translate(572,858) scale(3.7766666666667)"><circle cx="3" cy="3" r="3"/></g>
<g transform="translate(594,858) scale(3.7766666666667)"><circle cx="3" cy="3" r="3"/></g>
<g transform="translate(616,858) scale(3.7766666666667)"><circle cx="3" cy="3" r="3"/></g>
<g transform="translate(638,858) scale(3.7766666666667)"><circle cx="3" cy="3" r="3"/></g>
<g transform="translate(660,858) scale(3.7766666666667)"><circle cx="3" cy="3" r="3"/></g>
<g transform="translate(682,858) scale(3.7766666666667)"><circle cx="3" cy="3" r="3"/></g>
<g transform="translate(704,858) scale(3.7766666666667)"><circle cx="3" cy="3" r="3"/></g>
<g transform="translate(770,858) scale(3.7766666666667)"><circle cx="3" cy="3" r="3"/></g>
<g transform="translate(814,858) scale(3.7766666666667)"><circle cx="3" cy="3" r="3"/></g>
<g transform="translate(924,858) scale(3.7766666666667)"><circle cx="3" cy="3" r="3"/></g>
<g transform="translate(220,880) scale(3.7766666666667)"><circle cx="3" cy="3" r="3"/></g>
<g transform="translate(264,880) scale(3.7766666666667)"><circle cx="3" cy="3" r="3"/></g>
<g transform="translate(286,880) scale(3.7766666666667)"><circle cx="3" cy="3" r="3"/></g>
<g transform="translate(308,880) scale(3.7766666666667)"><circle cx="3" cy="3" r="3"/></g>
<g transform="translate(330,880) scale(3.7766666666667)"><circle cx="3" cy="3" r="3"/></g>
<g transform="translate(396,880) scale(3.7766666666667)"><circle cx="3" cy="3" r="3"/></g>
<g transform="translate(418,880) scale(3.7766666666667)"><circle cx="3" cy="3" r="3"/></g>
<g transform="translate(440,880) scale(3.7766666666667)"><circle cx="3" cy="3" r="3"/></g>
<g transform="translate(462,880) scale(3.7766666666667)"><circle cx="3" cy="3" r="3"/></g>
<g transform="translate(484,880) scale(3.7766666666667)"><circle cx="3" cy="3" r="3"/></g>
<g transform="translate(572,880) scale(3.7766666666667)"><circle cx="3" cy="3" r="3"/></g>
<g transform="translate(594,880) scale(3.7766666666667)"><circle cx="3" cy="3" r="3"/></g>
<g transform="translate(638,880) scale(3.7766666666667)"><circle cx="3" cy="3" r="3"/></g>
<g transform="translate(660,880) scale(3.7766666666667)"><circle cx="3" cy="3" r="3"/></g>
<g transform="translate(726,880) scale(3.7766666666667)"><circle cx="3" cy="3" r="3"/></g>
<g transform="translate(770,880) scale(3.7766666666667)"><circle cx="3" cy="3" r="3"/></g>
<g transform="translate(792,880) scale(3.7766666666667)"><circle cx="3" cy="3" r="3"/></g>
<g transform="translate(814,880) scale(3.7766666666667)"><circle cx="3" cy="3" r="3"/></g>
<g transform="translate(836,880) scale(3.7766666666667)"><circle cx="3" cy="3" r="3"/></g>
<g transform="translate(858,880) scale(3.7766666666667)"><circle cx="3" cy="3" r="3"/></g>
<g transform="translate(902,880) scale(3.7766666666667)"><circle cx="3" cy="3" r="3"/></g>
<g transform="translate(242,902) scale(3.7766666666667)"><circle cx="3" cy="3" r="3"/></g>
<g transform="translate(308,902) scale(3.7766666666667)"><circle cx="3" cy="3" r="3"/></g>
<g transform="translate(352,902) scale(3.7766666666667)"><circle cx="3" cy="3" r="3"/></g>
<g transform="translate(374,902) scale(3.7766666666667)"><circle cx="3" cy="3" r="3"/></g>
<g transform="translate(418,902) scale(3.7766666666667)"><circle cx="3" cy="3" r="3"/></g>
<g transform="translate(484,902) scale(3.7766666666667)"><circle cx="3" cy="3" r="3"/></g>
<g transform="translate(528,902) scale(3.7766666666667)"><circle cx="3" cy="3" r="3"/></g>
<g transform="translate(572,902) scale(3.7766666666667)"><circle cx="3" cy="3" r="3"/></g>
<g transform="translate(616,902) scale(3.7766666666667)"><circle cx="3" cy="3" r="3"/></g>
<g transform="translate(726,902) scale(3.7766666666667)"><circle cx="3" cy="3" r="3"/></g>
<g transform="translate(792,902) scale(3.7766666666667)"><circle cx="3" cy="3" r="3"/></g>
<g transform="translate(836,902) scale(3.7766666666667)"><circle cx="3" cy="3" r="3"/></g>
<g transform="translate(858,902) scale(3.7766666666667)"><circle cx="3" cy="3" r="3"/></g>
<g transform="translate(902,902) scale(3.7766666666667)"><circle cx="3" cy="3" r="3"/></g>
<g transform="translate(264,924) scale(3.7766666666667)"><circle cx="3" cy="3" r="3"/></g>
<g transform="translate(462,924) scale(3.7766666666667)"><circle cx="3" cy="3" r="3"/></g>
<g transform="translate(484,924) scale(3.7766666666667)"><circle cx="3" cy="3" r="3"/></g>
<g transform="translate(506,924) scale(3.7766666666667)"><circle cx="3" cy="3" r="3"/></g>
<g transform="translate(528,924) scale(3.7766666666667)"><circle cx="3" cy="3" r="3"/></g>
<g transform="translate(550,924) scale(3.7766666666667)"><circle cx="3" cy="3" r="3"/></g>
<g transform="translate(572,924) scale(3.7766666666667)"><circle cx="3" cy="3" r="3"/></g>
<g transform="translate(594,924) scale(3.7766666666667)"><circle cx="3" cy="3" r="3"/></g>
<g transform="translate(682,924) scale(3.7766666666667)"><circle cx="3" cy="3" r="3"/></g>
<g transform="translate(726,924) scale(3.7766666666667)"><circle cx="3" cy="3" r="3"/></g>
<g transform="translate(770,924) scale(3.7766666666667)"><circle cx="3" cy="3" r="3"/></g>
<g transform="translate(792,924) scale(3.7766666666667)"><circle cx="3" cy="3" r="3"/></g>
<g transform="translate(814,924) scale(3.7766666666667)"><circle cx="3" cy="3" r="3"/></g>
<g transform="translate(836,924) scale(3.7766666666667)"><circle cx="3" cy="3" r="3"/></g>
<g transform="translate(858,924) scale(3.7766666666667)"><circle cx="3" cy="3" r="3"/></g>
<g transform="translate(44,44)"><g transform="scale(11)"><path d="M0,7L0,7c0,3.9,3.1,7,7,7h0c3.9,0,7-3.1,7-7v0c0-3.9-3.1-7-7-7h0C3.1,0,0,3.1,0,7z M7,12L7,12c-2.8,0-5-2.2-5-5v0 c0-2.8,2.2-5,5-5h0c2.8,0,5,2.2,5,5v0C12,9.8,9.8,12,7,12z"/></g></g>
<g transform="translate(792,44)"><g transform="scale(11)"><path d="M0,7L0,7c0,3.9,3.1,7,7,7h0c3.9,0,7-3.1,7-7v0c0-3.9-3.1-7-7-7h0C3.1,0,0,3.1,0,7z M7,12L7,12c-2.8,0-5-2.2-5-5v0 c0-2.8,2.2-5,5-5h0c2.8,0,5,2.2,5,5v0C12,9.8,9.8,12,7,12z"/></g></g>
<g transform="translate(44,792)"><g transform="scale(11)"><path d="M0,7L0,7c0,3.9,3.1,7,7,7h0c3.9,0,7-3.1,7-7v0c0-3.9-3.1-7-7-7h0C3.1,0,0,3.1,0,7z M7,12L7,12c-2.8,0-5-2.2-5-5v0 c0-2.8,2.2-5,5-5h0c2.8,0,5,2.2,5,5v0C12,9.8,9.8,12,7,12z"/></g></g>
<g transform="translate(88,88)"><g transform="scale(11)"><circle cx="3" cy="3" r="3"/></g></g>
<g transform="translate(836,88)"><g transform="scale(11)"><circle cx="3" cy="3" r="3"/></g></g>
<g transform="translate(88,836)"><g transform="scale(11)"><circle cx="3" cy="3" r="3"/></g></g>
</g></svg>
